<svg xmlns="http://www.w3.org/2000/svg" xmlns:xlink="http://www.w3.org/1999/xlink" version="1.1" x="0" y="0" width="46" height="42" viewBox="0 0 46 42" xml:space="preserve" enable-background="new 0 0 46 42">
  <path fill="#18e2bf" d="M24.3 1C12.5 1 4.2 9.4 4.2 20.8c0 4.3 1.2 7.8 3.4 10.9L7.4 32 1 41c0 0 19.3 0 23.3 0 11.8 0 20.1-8.6 20.1-20S36.1 1 24.3 1zM25.8 29.6c-0.4 0.4-0.8 0.6-1.4 0.6-0.3 0-0.5 0-0.7-0.1s-0.4-0.2-0.6-0.4c-0.2-0.2-0.3-0.4-0.4-0.6-0.1-0.2-0.2-0.5-0.2-0.7 0-0.5 0.2-1 0.6-1.3 0.4-0.4 0.8-0.6 1.4-0.6 0.5 0 1 0.2 1.3 0.5 0.4 0.4 0.6 0.8 0.6 1.3C26.4 28.8 26.2 29.2 25.8 29.6zM29.6 18.6c-0.1 0.4-0.3 0.8-0.6 1.1-0.2 0.3-0.5 0.7-0.8 1-0.3 0.3-0.6 0.6-1 1-0.2 0.2-0.4 0.4-0.6 0.6-0.2 0.2-0.3 0.3-0.4 0.5-0.1 0.2-0.1 0.4-0.2 0.6 0 0.2 0 0.5 0 0.8V25h-3v-1.3c0-0.4 0-0.7 0.1-0.9 0-0.2 0.1-0.5 0.2-0.7 0.1-0.2 0.2-0.4 0.4-0.6 0.2-0.2 0.4-0.4 0.6-0.7l1.8-1.9c0.4-0.4 0.6-0.9 0.6-1.6 0-0.6-0.2-1.1-0.6-1.5-0.4-0.4-0.9-0.6-1.5-0.6-0.7 0-1.2 0.2-1.7 0.7-0.4 0.5-0.7 1-0.7 1.7l-3.1-0.2c0.1-0.8 0.3-1.5 0.6-2.1 0.3-0.6 0.7-1.1 1.2-1.5 0.5-0.4 1.1-0.7 1.7-0.9 0.6-0.2 1.3-0.3 2.1-0.3 0.7 0 1.4 0.1 2 0.3 0.6 0.2 1.2 0.5 1.6 0.9 0.5 0.4 0.8 0.9 1.1 1.5s0.4 1.3 0.4 2C29.8 17.8 29.7 18.2 29.6 18.6z"/>
</svg>
